<svg width="248" height="75" xmlns="http://www.w3.org/2000/svg" xmlns:xlink="http://www.w3.org/1999/xlink" xml:space="preserve" overflow="hidden"><defs><clipPath id="clip0"><rect x="929" y="599" width="248" height="75"></rect></clipPath><linearGradient x1="182.601" y1="38.7308" x2="238.307" y2="38.7308" gradientUnits="userSpaceOnUse" spreadMethod="pad" id="fill1"><stop offset="0" stop-color="#3CC8D9"></stop><stop offset="0.15" stop-color="#39C1DB"></stop><stop offset="0.35" stop-color="#31AFE0"></stop><stop offset="0.59" stop-color="#2590EA"></stop><stop offset="0.85" stop-color="#1467F6"></stop><stop offset="1" stop-color="#0A4DFF"></stop></linearGradient><linearGradient x1="0.633974" y1="36.8539" x2="24.8418" y2="36.8539" gradientUnits="userSpaceOnUse" spreadMethod="pad" id="fill2"><stop offset="0" stop-color="#3CC8D9"></stop><stop offset="0.15" stop-color="#39C1DB"></stop><stop offset="0.35" stop-color="#31AFE0"></stop><stop offset="0.59" stop-color="#2590EA"></stop><stop offset="0.85" stop-color="#1467F6"></stop><stop offset="1" stop-color="#0A4DFF"></stop></linearGradient></defs><g clip-path="url(#clip0)" transform="translate(-929 -599)"><path d="M131.591 24.7417 131.591 39.64C131.591 41.4585 130.115 42.935 128.296 42.935L121.356 42.935C118.42 42.935 103.646 42.3845 103.671 26.5435 103.696 10.7609 118.328 10.1352 121.022 9.98509 123.742 9.82659 130.482 9.94338 130.482 9.94338L128.688 14.6314C128.455 15.2404 127.871 15.6408 127.22 15.6325 125.819 15.6158 123.366 15.5991 121.715 15.6491 118.912 15.7242 111.162 16.7753 111.162 26.5435 111.162 37.7465 121.172 37.4462 124.125 37.1125 124.584 37.0624 124.935 36.6787 124.935 36.2116L124.935 29.5966 118.445 29.5966C118.345 29.5966 118.261 29.5131 118.261 29.413L118.261 24.7333C118.261 24.6332 118.345 24.5498 118.445 24.5498L131.399 24.5498C131.499 24.5498 131.583 24.6332 131.583 24.7333Z" fill="#FFFFFF" transform="matrix(1.00202 0 0 1 929 599.016)"></path><path d="M55.5811 42.7432 50.1757 42.7432C49.0412 42.7432 47.9818 42.1593 47.3812 41.1916 45.254 37.7965 40.2824 29.8385 39.1229 27.9866 38.9977 27.7864 39.0978 27.5445 39.3231 27.4694 40.7662 27.019 45.2374 25.2422 45.2457 20.6792 45.2624 16.3165 42.1092 15.0819 38.3054 15.0819L35.8195 15.0819 35.8195 42.5179C35.8195 42.618 35.7361 42.7015 35.636 42.7015L32.4328 42.7015C30.6143 42.7015 29.1378 41.225 29.1378 39.4065L29.1378 9.89333 41.6421 9.89333C47.7649 9.96006 52.6949 14.3395 52.6949 19.7616 52.6949 23.6322 50.7346 27.2776 47.0642 28.9042L55.7396 42.4596C55.8231 42.5847 55.7313 42.7432 55.5811 42.7432Z" fill="#FFFFFF" transform="matrix(1.00202 0 0 1 929 599.016)"></path><path d="M59.8521 9.91001 67.3347 9.91001 67.3347 42.5597C67.3347 42.7432 67.1845 42.8933 67.001 42.8933L60.1775 42.8933C59.9939 42.8933 59.8438 42.7432 59.8438 42.5597L59.8438 9.91001 59.8438 9.91001Z" fill="#FFFFFF" transform="matrix(1.00202 0 0 1 929 599.016)"></path><path d="M86.2121 9.90167C86.0953 9.90167 85.9702 9.90167 85.845 9.91001L72.2647 9.91001 72.2647 40.6911 72.2647 40.6911C72.2647 41.9007 73.249 42.885 74.4585 42.885L86.3706 42.885C94.2118 42.7932 100.535 35.4525 100.535 26.4017 100.535 17.3509 94.1284 9.90167 86.2121 9.90167ZM82.9588 37.4879 79.8223 37.4879C79.3552 37.4879 78.9798 37.1125 78.9798 36.6453L78.9798 15.1236 82.9588 15.1236C88.2975 15.1236 93.0523 19.7449 92.9689 26.385 92.8855 33.0584 88.2892 37.4962 82.9588 37.4962Z" fill="#FFFFFF" transform="matrix(1.00202 0 0 1 929 599.016)"></path><path d="M143.787 28.8458 154.748 28.8458C154.848 28.8458 154.931 28.7624 154.931 28.6623L154.931 24.2829C154.931 24.1828 154.848 24.0993 154.748 24.0993L143.787 24.0993 143.787 15.2321 157.509 15.2321C157.609 15.2321 157.693 15.1403 157.693 15.0402L157.693 10.1269C157.693 10.0268 157.609 9.94338 157.509 9.94338L137.063 9.94338 137.063 39.6234C137.063 41.4419 138.54 42.9184 140.358 42.9184L157.509 42.9184C157.609 42.9184 157.693 42.8349 157.693 42.7348L157.693 40.8329C157.693 39.0144 156.216 37.5379 154.398 37.5379L143.787 37.5379 143.787 28.8625Z" fill="#FFFFFF" transform="matrix(1.00202 0 0 1 929 599.016)"></path><path d="M105.915 62.5215 104.214 64.2232 98.0991 58.1087C97.4901 57.4997 97.3567 56.5404 97.8238 55.8314 98.4745 54.8471 99.8092 54.747 100.602 55.5394 100.752 55.6896 100.869 55.8564 100.952 56.0399 101.177 56.5154 101.661 56.8074 102.187 56.8074L105.365 56.8074C105.365 55.0139 104.589 53.3372 103.188 52.1694 100.96 50.3008 97.6236 50.3258 95.413 52.2194 93.3443 53.9879 92.7937 56.799 93.7614 59.1264L92.9856 59.9022C91.5592 61.3286 90.6499 63.2305 90.5915 65.2492 90.5331 67.2679 91.3339 69.3534 92.8188 70.8382 94.3036 72.3231 96.2556 73.0655 98.2075 73.0655 100.16 73.0655 102.111 72.3231 103.596 70.8382L104.205 70.2293 105.874 71.8976C106.099 72.1228 106.458 72.1228 106.683 71.8976L108.868 69.7037C109.094 69.4785 109.094 69.1198 108.868 68.8946L107.2 67.2262 108.902 65.5245C109.127 65.2993 109.127 64.9406 108.902 64.7154L106.716 62.5215C106.491 62.2963 106.132 62.2963 105.907 62.5215ZM100.693 67.7434C100.109 68.3274 99.3504 68.7361 98.5245 68.8112 97.5068 68.9029 96.5392 68.5442 95.8218 67.8352 95.1127 67.1261 94.754 66.1502 94.8458 65.1408 94.9209 64.315 95.3213 63.5559 95.9136 62.9719L96.4391 62.4464 101.219 67.2262 100.702 67.7434Z" fill="#FFFFFF" transform="matrix(1.00202 0 0 1 929 599.016)"></path><path d="M147.491 50.6678C141.468 50.6678 136.571 55.5645 136.571 61.5872 136.571 67.61 141.468 72.5066 147.491 72.5066 153.513 72.5066 158.41 67.61 158.41 61.5872 158.41 55.5645 153.513 50.6678 147.491 50.6678ZM147.491 68.2606C143.812 68.2606 140.817 65.2659 140.817 61.5872 140.817 57.9085 143.812 54.9138 147.491 54.9138 151.169 54.9138 154.164 57.9085 154.164 61.5872 154.164 65.2659 151.169 68.2606 147.491 68.2606Z" fill="#FFFFFF" transform="matrix(1.00202 0 0 1 929 599.016)"></path><path d="M120.447 56.3736C124.009 53.7126 128.355 54.9305 130.315 58.0086 130.574 58.4173 131.082 58.5758 131.516 58.3756L134.219 57.1077C134.402 57.0243 134.486 56.799 134.394 56.6155 131.583 51.1433 124.401 48.6408 118.378 52.6282 116.634 53.7793 115.275 55.456 114.541 57.4163 111.621 65.1658 117.31 72.5066 124.676 72.5066 128.772 72.5066 132.567 70.1709 134.411 66.5255 134.478 66.3921 134.419 66.2336 134.286 66.1668L131.491 64.8322C131.057 64.6236 130.549 64.7904 130.29 65.1908 129.072 67.0761 126.945 68.2606 124.676 68.2606 120.055 68.2606 116.518 63.5475 118.62 58.6759 119.012 57.7667 119.646 56.9575 120.447 56.3653Z" fill="#FFFFFF" transform="matrix(1.00202 0 0 1 929 599.016)"></path><path d="M18.5354 24.6332C18.3602 24.5748 18.3435 24.3329 18.4937 24.2412 20.746 22.8648 22.2558 20.4206 22.2558 17.6345 22.2558 13.3552 18.7106 9.87664 14.3478 9.87664L0.241911 9.87664C0.108443 9.87664 0 9.98509 0 10.1186L0 39.1896C0 41.0081 1.47649 42.4929 3.30334 42.4929L15.6408 42.4929C20.7209 42.4929 24.8418 38.3888 24.8418 33.3253 24.8418 29.2712 22.1974 25.8511 18.5354 24.6332ZM11.9871 37.3544 6.82356 37.3544C6.51491 37.3544 6.273 37.0624 6.273 36.6954L6.273 15.6658C6.273 15.2988 6.52326 14.9985 6.82356 14.9985L11.6201 14.9985C13.6805 14.9985 14.7899 15.9161 15.3905 17.4593 16.3415 19.9285 15.4072 23.5238 12.521 24.7333 12.3041 24.8251 12.3291 25.1337 12.5543 25.1921 13.9474 25.5341 15.3155 26.4767 16.1413 27.5278 19.5447 31.8405 16.4666 37.3544 11.9871 37.3544Z" fill="#FFFFFF" transform="matrix(1.00202 0 0 1 929 599.016)"></path><path d="M0.61729 41.2333C0.61729 41.2333 0.625632 41.225 0.642315 41.2083 0.642315 41.2083 0.642315 41.225 0.625632 41.2583 0.625632 41.2583 0.61729 41.2417 0.608948 41.2417Z" fill="#FFFFFF" transform="matrix(1.00202 0 0 1 929 599.016)"></path><path d="M176.22 29.1294C173.242 34.8602 171.673 41.5336 171.673 48.4156 171.673 50.4176 171.774 52.428 172.04 54.405 172.141 55.139 171.115 55.4227 170.848 54.7386 169.021 50.0172 167.928 44.6284 167.928 39.4565 167.928 34.2846 169.012 28.7874 171.156 23.8574L171.29 23.5404 176.295 28.996 176.22 29.1378Z" fill="#FFFFFF" transform="matrix(1.00202 0 0 1 929 599.016)"></path><path d="M208.094 10.4856C207.968 10.4856 207.843 10.4856 207.718 10.4856 193.212 10.4856 184.645 17.4343 180.015 23.2568L179.857 23.457 174.468 17.7763 174.568 17.6345C175.994 15.5073 177.604 13.547 179.373 11.7702L182.66 10.3021C186.58 8.55865 190.759 7.67442 195.072 7.67442 199.385 7.67442 203.956 8.64206 208.094 10.4939Z" fill="#FFFFFF" transform="matrix(1.00202 0 0 1 929 599.016)"></path><path d="M228.781 63.4141C222.108 70.9216 212.348 74.9674 202.571 74.9674 198.25 74.9674 193.929 74.1749 189.858 72.5483 189.383 72.3564 189.55 71.6641 190.025 71.6641 190.05 71.6641 190.084 71.6641 190.109 71.6724 191.669 71.9143 193.237 72.0394 194.788 72.0394 212.398 72.0394 229.09 56.7323 227.88 37.7882 227.513 25.5258 220.715 15.8744 211.439 10.6441 206.492 7.84125 200.828 6.30637 195.072 6.30637 190.893 6.30637 186.655 7.11552 182.601 8.84227 183.227 8.33342 183.877 7.84125 184.536 7.38246 189.875 4.04575 195.915 2.49419 201.946 2.49419 215.042 2.49419 228.172 9.77654 234.337 21.9639 234.629 22.5311 234.904 23.115 235.163 23.7073 235.446 24.3663 235.713 25.042 235.963 25.726L235.855 25.5842C240.86 38.1636 238.091 53.5207 228.789 63.4224Z" fill="url(#fill1)" transform="matrix(1.00202 0 0 1 929 599.016)"></path><path d="M247.5 39.4482C247.5 44.6618 246.332 49.7669 244.272 54.5051 244.038 55.0389 243.237 54.772 243.346 54.2131 243.738 52.2695 243.805 50.6762 243.755 48.4156 243.588 40.9414 241.669 33.2419 237.765 26.7437L237.231 25.2672C234.645 18.0599 229.774 11.9454 223.15 7.55763 216.877 3.41178 209.345 1.12614 201.937 1.12614 200.219 1.12614 198.517 1.24292 196.857 1.48483 200.344 0.508847 203.989 1.85225e-15 207.71 1.85225e-15 229.649 1.85225e-15 247.5 17.7012 247.5 39.4482Z" fill="#FFFFFF" transform="matrix(1.00202 0 0 1 929 599.016)"></path><path d="M24.8418 33.317C24.8418 38.3804 20.7209 42.4846 15.6325 42.4846L3.11148 42.4846C2.10212 42.4846 1.19287 42.0008 0.633974 41.2417 0.633974 41.225 0.642315 41.2166 0.642315 41.2 0.642315 41.2 0.642315 41.1916 0.642315 41.1916 0.642315 41.1916 2.02705 38.564 4.98837 38.6641L4.99671 38.6641C7.9497 38.7642 12.8296 39.6901 15.2321 39.3314 15.2487 39.3314 15.2571 39.3314 15.2738 39.3314 20.1537 38.9727 24.5665 36.3784 24.5915 31.2149 24.75 31.8905 24.8334 32.5913 24.8334 33.3086Z" fill="url(#fill2)" transform="matrix(1.00202 0 0 1 929 599.016)"></path></g></svg>